<svg width="800" height="675" viewBox="0 0 800 675" fill="none" xmlns="http://www.w3.org/2000/svg">
<path d="M367.7 333.55C355.782 307.324 349.757 278.805 350.05 250C350.237 218.676 356.239 187.657 367.75 158.524C379.128 129.256 395.439 102.156 415.975 78.3997C435.948 55.0587 460.222 35.7753 487.475 21.5996C514.517 7.56448 544.508 0.161258 574.975 2.31205e-05C619.481 -0.00530859 662.989 13.1883 699.996 37.9128C737.003 62.6373 765.846 97.782 782.877 138.901C799.908 180.02 804.361 225.265 795.675 268.916C786.988 312.566 765.551 352.659 734.075 384.125C713.725 404.45 426.9 663.6 399.975 675C373.05 663.6 86.2252 404.45 65.8752 384.125C34.3949 352.655 12.9562 312.555 4.27182 268.897C-4.41256 225.24 0.0474782 179.988 17.0877 138.866C34.1279 97.7439 62.9824 62.6003 100.001 37.8815C137.019 13.1627 180.537 -0.0201511 225.05 2.31205e-05C255.517 0.155519 285.51 7.55907 312.55 21.5996C339.811 35.7752 364.093 55.0584 384.075 78.3997C404.602 102.162 420.913 129.261 432.3 158.524C443.818 187.657 449.836 218.674 450.05 250C450.34 278.848 444.307 307.409 432.375 333.675C421.089 357.927 404.628 379.414 384.15 396.625" fill="#EA3B3B"/>
</svg>
